<?xml version="1.0" encoding="UTF-8" standalone="no"?>
<!-- Created with Inkscape (http://www.inkscape.org/) -->

<svg
   xmlns:dc="http://purl.org/dc/elements/1.1/"
   xmlns:cc="http://creativecommons.org/ns#"
   xmlns:rdf="http://www.w3.org/1999/02/22-rdf-syntax-ns#"
   xmlns:svg="http://www.w3.org/2000/svg"
   xmlns="http://www.w3.org/2000/svg"
   xmlns:sodipodi="http://sodipodi.sourceforge.net/DTD/sodipodi-0.dtd"
   xmlns:inkscape="http://www.inkscape.org/namespaces/inkscape"
   version="1.1"
   width="1000"
   height="223.991"
   id="svg8925"
   inkscape:version="0.91 r13725"
   sodipodi:docname="Ninjago.svg">
  <sodipodi:namedview
     pagecolor="#ffffff"
     bordercolor="#666666"
     borderopacity="1"
     objecttolerance="10"
     gridtolerance="10"
     guidetolerance="10"
     inkscape:pageopacity="0"
     inkscape:pageshadow="2"
     inkscape:window-width="1366"
     inkscape:window-height="705"
     id="namedview65"
     showgrid="false"
     inkscape:zoom="0.74953319"
     inkscape:cx="550.32432"
     inkscape:cy="71.480811"
     inkscape:window-x="-8"
     inkscape:window-y="-8"
     inkscape:window-maximized="1"
     inkscape:current-layer="svg8925" />
  <defs
     id="defs8927">
    <clipPath
       id="clipPath4091">
      <path
         d="m 71.385,470.574 -30.188,0 0,135.072 30.188,0 0,-135.072 z"
         id="path4093"
         inkscape:connector-curvature="0" />
    </clipPath>
  </defs>
  <metadata
     id="metadata8930">
    <rdf:RDF>
      <cc:Work
         rdf:about="">
        <dc:format>image/svg+xml</dc:format>
        <dc:type
           rdf:resource="http://purl.org/dc/dcmitype/StillImage" />
        <dc:title></dc:title>
      </cc:Work>
    </rdf:RDF>
  </metadata>
  <path
     inkscape:connector-curvature="0"
     style="fill:#000000;fill-opacity:1;fill-rule:nonzero;stroke:none"
     id="path4163"
     d="m 167.27996,5.99013 0,87.557643 C 150.17234,76.42073 84.033196,10.281601 79.741724,5.99013 l -48.099415,0 26.409052,26.39934 c 8.660607,0 15.699787,7.029467 15.699787,15.7095 l 0,131.35589 C 44.468176,206.03868 29.758724,212.95163 0,223.991 38.137765,220.81609 80.023291,220.26266 130.79275,169.48349 L 107.8693,146.56006 c -0.0388,0.0388 -0.0776,0.0679 -0.10675,0.10675 l 0,-64.556532 93.54822,93.557942 0,-127.569303 c 0,-8.680032 7.02948,-15.709499 15.6998,-15.709499 L 243.40991,5.9900775" />
  <path
     d="m 258.24555,170.04664 0,-149.230541 -34.02107,34.49682 0,114.733721"
     id="path4167"
     style="fill:#000000;fill-opacity:1;fill-rule:nonzero;stroke:none"
     inkscape:connector-curvature="0" />
  <path
     inkscape:connector-curvature="0"
     style="fill:#000000;fill-opacity:1;fill-rule:nonzero;stroke:none"
     id="path4171"
     d="m 553.49289,70.993286 c 1.40783,-12.787023 2.15544,-25.777944 2.15544,-38.739739 l 29.7296,0 c 0,27.273168 3.25259,54.604598 9.31113,79.945623 L 553.49289,70.993286 Z M 654.69197,170.04664 C 635.7396,139.851 619.12714,90.479666 619.12714,5.9901365 l -97.20861,0 c 0,84.4895295 -16.61245,133.8608635 -35.56483,164.0565035 l 39.24462,0 c 9.95195,-19.4961 17.63193,-42.40012 22.75839,-66.88674 l 67.07121,66.88674" />
  <path
     d="m 711.09276,143.46283 c -6.1168,0 -11.82581,-6.14593 -14.07836,-11.45687 -11.185,-26.27312 -19.97183,-66.857615 -19.97183,-91.839406 0,-4.495365 3.39822,-7.913006 8.91304,-7.913006 l 50.22575,0 26.23428,-26.2634115 -95.13083,0 c -14.62207,0 -26.50614,11.8646535 -26.50614,26.4770145 0,41.710763 10.15583,81.916589 23.01083,111.335499 7.63144,17.45716 22.4574,26.24399 35.83669,26.24399 l 62.78945,0 0,-67.62464 -30.94325,-31.428701 0,72.469531"
     id="path4175"
     style="fill:#000000;fill-opacity:1;fill-rule:nonzero;stroke:none"
     inkscape:connector-curvature="0" />
  <path
     inkscape:connector-curvature="0"
     style="fill:#000000;fill-opacity:1;fill-rule:nonzero;stroke:none"
     id="path4179"
     d="m 870.63449,136.59841 c 0,3.96136 -3.22346,7.20424 -7.21394,7.20424 l -40.77868,0 c -3.97106,0 -7.22365,-3.24288 -7.22365,-7.20424 l 0,-97.140634 c 0,-3.971067 3.25259,-7.194524 7.22365,-7.194524 l 40.77868,0 c 3.99048,0 7.21394,3.223457 7.21394,7.194524 l 0,97.140634 z M 1000,223.991 c -37.66203,-13.96184 -60.36216,-29.41891 -96.82025,-71.78018 0.9418,-2.70887 1.47581,-5.61193 1.47581,-8.63148 l 0,-95.470659 c 0,-8.689743 7.02946,-15.709501 15.69979,-15.709501 l 26.38963,-26.4090487 -138.84169,0 c -14.62207,0 -26.49643,11.8646537 -26.49643,26.4867227 l 0,111.102486 c 0,14.62207 11.87436,26.4673 26.49643,26.4673 l 67.28482,0 C 925.64687,220.26267 961.97873,220.83551 1000,223.991" />
  <path
     d="m 426.49643,5.9901313 26.30225,26.2925387 10.38885,-0.02913 C 460.35244,137.91886 435.77844,181.89188 380.97965,223.991 468.54702,184.28034 499.05335,137.0062 499.05335,5.9901326"
     id="path4183"
     style="fill:#000000;fill-opacity:1;fill-rule:nonzero;stroke:none"
     inkscape:connector-curvature="0" />
  <g
     transform="matrix(0,9.7092092,9.7092092,0,408.71887,32.370053)"
     id="g4185"
     style="fill:#000000">
    <path
       d="m 0,0 -0.004,1.961 -2.713,-2.714 0,-2.771 0.022,0.021 8.996,0 c -1.628,-1.628 -8.274,-8.271 -9.635,-9.635 l 17.514,0 0,3.504 -9.057,0 L 14.759,0"
       id="path4187"
       style="fill:#000000;fill-opacity:1;fill-rule:nonzero;stroke:none"
       inkscape:connector-curvature="0" />
  </g>
</svg>
